<svg width="71" height="39" viewBox="0 0 71 39" fill="none" xmlns="http://www.w3.org/2000/svg">
<path d="M66.1987 14.835L35.8385 14.835C33.9077 7.06333 26.974 1.27197 18.7133 1.27197C8.95752 1.27197 1.05176 9.34165 1.05176 19.2258C1.05176 29.11 8.95752 37.1797 18.7133 37.1797C27.5655 37.1797 34.8023 30.5181 36.0879 21.9212H56.0348V30.2458C56.0348 32.1854 57.5859 33.7889 59.5341 33.7889C61.4823 33.7889 63.0333 32.1854 63.0333 30.2458V21.9212H66.1987C68.1469 21.9212 69.6979 20.3177 69.6979 18.3781C69.6979 16.4385 68.1469 14.835 66.1987 14.835ZM18.7133 30.0935C12.8506 30.0935 8.05022 25.2342 8.05022 19.2258C8.05022 13.2175 12.8506 8.35813 18.7133 8.35813C24.576 8.35813 29.3764 13.2175 29.3764 19.2258C29.3764 25.2342 24.576 30.0935 18.7133 30.0935Z" fill="#7542E5" stroke="black" stroke-width="2"/>
</svg>
