<svg width="53" height="65" viewBox="0 0 53 65" fill="none" xmlns="http://www.w3.org/2000/svg">
<rect x="19.5264" y="30.7139" width="13.8708" height="29.7231" fill="white"/>
<mask id="path-2-inside-1_1565_1084" fill="white">
<path fill-rule="evenodd" clip-rule="evenodd" d="M25.7102 8.2183C21.32 8.2183 17.7487 11.9056 17.7487 16.4383V22.725H33.938L33.6716 16.4383C33.6716 11.9056 30.1003 8.2183 25.7102 8.2183ZM41.633 22.725L41.633 16.4383C41.633 7.37372 34.4904 0 25.7102 0C16.9299 0 9.78729 7.37289 9.78729 16.4383V22.725H4.43463C3.97163 22.7249 3.51315 22.819 3.08538 23.0019C2.6576 23.1848 2.26892 23.4529 1.94153 23.7909C1.61414 24.1289 1.35446 24.5302 1.17732 24.9719C1.00019 25.4136 0.909074 25.887 0.90918 26.365V61.3609C0.90918 61.8388 1.00037 62.3121 1.17755 62.7537C1.35474 63.1953 1.61443 63.5965 1.94181 63.9344C2.26919 64.2723 2.65784 64.5404 3.08556 64.7232C3.51328 64.9061 3.9717 65.0001 4.43463 65H48.5659C49.0289 65.0001 49.4874 64.906 49.9151 64.7231C50.3428 64.5402 50.7314 64.2721 51.0588 63.9341C51.3861 63.596 51.6457 63.1947 51.8227 62.7531C51.9998 62.3114 52.0908 61.838 52.0906 61.3601V26.3642C52.0907 25.8862 51.9996 25.413 51.8225 24.9714C51.6454 24.5298 51.3858 24.1286 51.0585 23.7907C50.7312 23.4527 50.3426 23.1847 49.9149 23.0018C49.4872 22.819 49.0288 22.7249 48.5659 22.725H41.633ZM28.1279 41.3992C30.1355 40.695 31.5898 38.7534 31.5898 36.4413C31.5729 35.0587 31.0292 33.7386 30.0762 32.767C29.1233 31.7954 27.8379 31.2506 26.4987 31.2506C25.1594 31.2506 23.8741 31.7954 22.9211 32.767C21.9682 33.7386 21.4244 35.0587 21.4075 36.4413C21.4075 38.7534 22.8618 40.695 24.8695 41.3992L21.5596 51.3997C20.9402 53.2716 22.2875 55.2165 24.2027 55.2165H28.7955C30.7098 55.2165 32.0571 53.2716 31.4378 51.3997L28.1279 41.3992Z"/>
</mask>
<path fill-rule="evenodd" clip-rule="evenodd" d="M25.7102 8.2183C21.32 8.2183 17.7487 11.9056 17.7487 16.4383V22.725H33.938L33.6716 16.4383C33.6716 11.9056 30.1003 8.2183 25.7102 8.2183ZM41.633 22.725L41.633 16.4383C41.633 7.37372 34.4904 0 25.7102 0C16.9299 0 9.78729 7.37289 9.78729 16.4383V22.725H4.43463C3.97163 22.7249 3.51315 22.819 3.08538 23.0019C2.6576 23.1848 2.26892 23.4529 1.94153 23.7909C1.61414 24.1289 1.35446 24.5302 1.17732 24.9719C1.00019 25.4136 0.909074 25.887 0.90918 26.365V61.3609C0.90918 61.8388 1.00037 62.3121 1.17755 62.7537C1.35474 63.1953 1.61443 63.5965 1.94181 63.9344C2.26919 64.2723 2.65784 64.5404 3.08556 64.7232C3.51328 64.9061 3.9717 65.0001 4.43463 65H48.5659C49.0289 65.0001 49.4874 64.906 49.9151 64.7231C50.3428 64.5402 50.7314 64.2721 51.0588 63.9341C51.3861 63.596 51.6457 63.1947 51.8227 62.7531C51.9998 62.3114 52.0908 61.838 52.0906 61.3601V26.3642C52.0907 25.8862 51.9996 25.413 51.8225 24.9714C51.6454 24.5298 51.3858 24.1286 51.0585 23.7907C50.7312 23.4527 50.3426 23.1847 49.9149 23.0018C49.4872 22.819 49.0288 22.7249 48.5659 22.725H41.633ZM28.1279 41.3992C30.1355 40.695 31.5898 38.7534 31.5898 36.4413C31.5729 35.0587 31.0292 33.7386 30.0762 32.767C29.1233 31.7954 27.8379 31.2506 26.4987 31.2506C25.1594 31.2506 23.8741 31.7954 22.9211 32.767C21.9682 33.7386 21.4244 35.0587 21.4075 36.4413C21.4075 38.7534 22.8618 40.695 24.8695 41.3992L21.5596 51.3997C20.9402 53.2716 22.2875 55.2165 24.2027 55.2165H28.7955C30.7098 55.2165 32.0571 53.2716 31.4378 51.3997L28.1279 41.3992Z" fill="#7542E5"/>
<path d="M17.7487 22.725H15.7487V24.725H17.7487V22.725ZM33.938 22.725V24.725H36.0245L35.9362 22.6404L33.938 22.725ZM33.6716 16.4383H31.6716V16.4806L31.6734 16.5229L33.6716 16.4383ZM41.633 22.725L39.633 22.7251L39.633 24.725H41.633V22.725ZM41.633 16.4383H39.633V16.4383L41.633 16.4383ZM9.78729 22.725V24.725H11.7873V22.725H9.78729ZM4.43463 22.725L4.43416 24.725H4.43463V22.725ZM3.08538 23.0019L2.29917 21.1629L2.29916 21.1629L3.08538 23.0019ZM1.94153 23.7909L3.37815 25.1824L3.37815 25.1824L1.94153 23.7909ZM1.17732 24.9719L3.0336 25.7164L3.0336 25.7164L1.17732 24.9719ZM0.90918 26.365H2.90918L2.90918 26.3645L0.90918 26.365ZM0.90918 61.3609H2.90918H0.90918ZM1.17755 62.7537L-0.678599 63.4985L-0.678597 63.4985L1.17755 62.7537ZM1.94181 63.9344L0.505344 65.326H0.505344L1.94181 63.9344ZM3.08556 64.7232L2.29944 66.5622L2.29946 66.5623L3.08556 64.7232ZM4.43463 65V63H4.43417L4.43463 65ZM48.5659 65L48.5664 63H48.5659V65ZM49.9151 64.7231L50.7014 66.5621L50.7014 66.5621L49.9151 64.7231ZM51.8227 62.7531L53.6791 63.4972L53.6791 63.4972L51.8227 62.7531ZM52.0906 61.3601H50.0906V61.3609L52.0906 61.3601ZM52.0906 26.3642L50.0906 26.3637V26.3642H52.0906ZM51.8225 24.9714L49.9662 25.7159L49.9662 25.7159L51.8225 24.9714ZM51.0585 23.7907L52.4951 22.3992L52.4951 22.3992L51.0585 23.7907ZM49.9149 23.0018L50.7011 21.1629L50.7011 21.1629L49.9149 23.0018ZM48.5659 22.725V24.725H48.5664L48.5659 22.725ZM28.1279 41.3992L27.4659 39.512L25.6118 40.1623L26.2292 42.0277L28.1279 41.3992ZM31.5898 36.4413H33.5898V36.4292L33.5896 36.417L31.5898 36.4413ZM21.4075 36.4413L19.4077 36.417L19.4075 36.4292V36.4413H21.4075ZM24.8695 41.3992L26.7682 42.0277L27.3855 40.1623L25.5315 39.512L24.8695 41.3992ZM21.5596 51.3997L19.6609 50.7713L19.6608 50.7715L21.5596 51.3997ZM31.4378 51.3997L33.3365 50.7715L33.3365 50.7713L31.4378 51.3997ZM19.7487 16.4383C19.7487 12.9494 22.4844 10.2183 25.7102 10.2183V6.2183C20.1557 6.2183 15.7487 10.8617 15.7487 16.4383H19.7487ZM19.7487 22.725V16.4383H15.7487V22.725H19.7487ZM17.7487 24.725H33.938V20.725H17.7487V24.725ZM31.6734 16.5229L31.9397 22.8097L35.9362 22.6404L35.6698 16.3536L31.6734 16.5229ZM25.7102 10.2183C28.9359 10.2183 31.6716 12.9494 31.6716 16.4383H35.6716C35.6716 10.8617 31.2646 6.2183 25.7102 6.2183V10.2183ZM43.633 22.725L43.633 16.4383L39.633 16.4383L39.633 22.7251L43.633 22.725ZM43.633 16.4383C43.633 6.32967 35.6545 -2 25.7102 -2V2C33.3263 2 39.633 8.41776 39.633 16.4383H43.633ZM25.7102 -2C15.7658 -2 7.78729 6.32878 7.78729 16.4383H11.7873C11.7873 8.417 18.094 2 25.7102 2V-2ZM7.78729 16.4383V22.725H11.7873V16.4383H7.78729ZM4.43463 24.725H9.78729V20.725H4.43463V24.725ZM3.87159 24.8409C4.05196 24.7638 4.24293 24.725 4.43416 24.725L4.4351 20.725C3.70034 20.7249 2.97434 20.8743 2.29917 21.1629L3.87159 24.8409ZM3.37815 25.1824C3.52281 25.033 3.69107 24.9181 3.87159 24.8409L2.29916 21.1629C1.62413 21.4515 1.01502 21.8728 0.504898 22.3995L3.37815 25.1824ZM3.0336 25.7164C3.11526 25.5128 3.23336 25.3319 3.37815 25.1824L0.504902 22.3995C-0.00508428 22.926 -0.406342 23.5477 -0.678953 24.2274L3.0336 25.7164ZM2.90918 26.3645C2.90913 26.1405 2.95191 25.9201 3.0336 25.7164L-0.678952 24.2274C-0.951525 24.9071 -1.09098 25.6334 -1.09082 26.3654L2.90918 26.3645ZM2.90918 61.3609V26.365H-1.09082V61.3609H2.90918ZM3.03371 62.0089C2.95199 61.8053 2.90918 61.5849 2.90918 61.3609H-1.09082C-1.09082 62.0928 -0.951243 62.819 -0.678599 63.4985L3.03371 62.0089ZM3.37828 62.5428C3.23349 62.3933 3.11538 62.2125 3.03371 62.0089L-0.678597 63.4985C-0.40591 64.1781 -0.00462395 64.7996 0.505344 65.326L3.37828 62.5428ZM3.87169 62.8842C3.69117 62.807 3.52293 62.6921 3.37828 62.5428L0.505344 65.326C1.01545 65.8526 1.6245 66.2737 2.29944 66.5622L3.87169 62.8842ZM4.43417 63C4.24297 63 4.05203 62.9613 3.87166 62.8842L2.29946 66.5623C2.97454 66.8508 3.70043 67.0002 4.43509 67L4.43417 63ZM48.5659 63H4.43463V67H48.5659V63ZM49.1288 62.8842C48.9485 62.9613 48.7576 63 48.5664 63L48.5655 67C49.3002 67.0002 50.0262 66.8508 50.7014 66.5621L49.1288 62.8842ZM49.622 62.5428C49.4774 62.6921 49.3092 62.807 49.1287 62.8842L50.7014 66.5621C51.3764 66.2734 51.9855 65.8521 52.4956 65.3253L49.622 62.5428ZM49.9663 62.0089C49.8847 62.2125 49.7667 62.3933 49.622 62.5428L52.4956 65.3253C53.0055 64.7987 53.4067 64.177 53.6791 63.4972L49.9663 62.0089ZM50.0906 61.3609C50.0907 61.5849 50.048 61.8052 49.9663 62.0089L53.6791 63.4972C53.9516 62.8176 54.0909 62.0912 54.0906 61.3592L50.0906 61.3609ZM50.0906 26.3642V61.3601H54.0906V26.3642H50.0906ZM49.9662 25.7159C50.0479 25.9195 50.0906 26.1398 50.0906 26.3637L54.0906 26.3646C54.0908 25.6327 53.9513 24.9065 53.6788 24.2269L49.9662 25.7159ZM49.6219 25.1821C49.7666 25.3315 49.8846 25.5124 49.9662 25.7159L53.6788 24.2269C53.4062 23.5473 53.005 22.9257 52.4951 22.3992L49.6219 25.1821ZM49.1287 24.8408C49.3091 24.918 49.4773 25.0328 49.6219 25.1821L52.4951 22.3992C51.9851 21.8726 51.376 21.4514 50.7011 21.1629L49.1287 24.8408ZM48.5664 24.725C48.7575 24.725 48.9484 24.7638 49.1287 24.8408L50.7011 21.1629C50.026 20.8742 49.3001 20.7249 48.5655 20.725L48.5664 24.725ZM41.633 24.725H48.5659V20.725H41.633V24.725ZM28.7899 43.2865C31.5917 42.3037 33.5898 39.6105 33.5898 36.4413H29.5898C29.5898 37.8962 28.6794 39.0863 27.4659 39.512L28.7899 43.2865ZM33.5896 36.417C33.5666 34.5283 32.8242 32.7125 31.5041 31.3665L28.6484 34.1674C29.2341 34.7646 29.5793 35.5891 29.5899 36.4657L33.5896 36.417ZM31.5041 31.3665C30.1818 30.0184 28.3848 29.2506 26.4987 29.2506V33.2506C27.2911 33.2506 28.0647 33.5723 28.6484 34.1674L31.5041 31.3665ZM26.4987 29.2506C24.6125 29.2506 22.8155 30.0184 21.4933 31.3665L24.349 34.1674C24.9326 33.5723 25.7062 33.2506 26.4987 33.2506V29.2506ZM21.4933 31.3665C20.1731 32.7125 19.4307 34.5283 19.4077 36.417L23.4074 36.4657C23.4181 35.5891 23.7633 34.7646 24.349 34.1674L21.4933 31.3665ZM19.4075 36.4413C19.4075 39.6105 21.4056 42.3037 24.2075 43.2865L25.5315 39.512C24.318 39.0863 23.4075 37.8962 23.4075 36.4413H19.4075ZM22.9708 40.7708L19.6609 50.7713L23.4583 52.0281L26.7682 42.0277L22.9708 40.7708ZM19.6608 50.7715C18.6419 53.8509 20.8342 57.2165 24.2027 57.2165V53.2165C23.7408 53.2165 23.2385 52.6923 23.4583 52.028L19.6608 50.7715ZM24.2027 57.2165H28.7955V53.2165H24.2027V57.2165ZM28.7955 57.2165C32.1635 57.2165 34.3553 53.8504 33.3365 50.7715L29.539 52.028C29.7589 52.6927 29.2561 53.2165 28.7955 53.2165V57.2165ZM33.3365 50.7713L30.0266 40.7708L26.2292 42.0277L29.5391 52.0281L33.3365 50.7713Z" fill="black" mask="url(#path-2-inside-1_1565_1084)"/>
</svg>
